<mxfile host="Electron" modified="2023-07-21T03:02:58.995Z" agent="Mozilla/5.0 (Windows NT 10.0; Win64; x64) AppleWebKit/537.36 (KHTML, like Gecko) draw.io/21.6.1 Chrome/112.0.5615.204 Electron/24.6.1 Safari/537.36" etag="FEBZU22iaiDnOloCkT3a" version="21.6.1" type="device">
  <diagram name="Página-1" id="BdBrNzeR2XLpbLEGG6Nz">
    <mxGraphModel dx="699" dy="1972" grid="1" gridSize="10" guides="1" tooltips="1" connect="1" arrows="1" fold="1" page="1" pageScale="1" pageWidth="827" pageHeight="1169" math="0" shadow="0">
      <root>
        <mxCell id="0" />
        <mxCell id="1" parent="0" />
        <mxCell id="l7NYolR5TWxmXyXD9etV-1" style="edgeStyle=orthogonalEdgeStyle;rounded=0;orthogonalLoop=1;jettySize=auto;html=1;exitX=0.5;exitY=1;exitDx=0;exitDy=0;exitPerimeter=0;entryX=0.5;entryY=0;entryDx=0;entryDy=0;" edge="1" parent="1" source="l7NYolR5TWxmXyXD9etV-2" target="l7NYolR5TWxmXyXD9etV-3">
          <mxGeometry relative="1" as="geometry" />
        </mxCell>
        <mxCell id="l7NYolR5TWxmXyXD9etV-2" value="INICIO DEL SISTEMA" style="strokeWidth=2;html=1;shape=mxgraph.flowchart.start_1;whiteSpace=wrap;" vertex="1" parent="1">
          <mxGeometry x="364" y="60" width="100" height="60" as="geometry" />
        </mxCell>
        <mxCell id="l7NYolR5TWxmXyXD9etV-40" value="" style="edgeStyle=orthogonalEdgeStyle;rounded=0;orthogonalLoop=1;jettySize=auto;html=1;" edge="1" parent="1" source="l7NYolR5TWxmXyXD9etV-3" target="l7NYolR5TWxmXyXD9etV-5">
          <mxGeometry relative="1" as="geometry" />
        </mxCell>
        <mxCell id="l7NYolR5TWxmXyXD9etV-3" value="&lt;br&gt;Conectar con el servidor" style="html=1;strokeWidth=2;shape=manualInput;whiteSpace=wrap;rounded=1;size=26;arcSize=11;" vertex="1" parent="1">
          <mxGeometry x="364" y="150" width="100" height="60" as="geometry" />
        </mxCell>
        <mxCell id="l7NYolR5TWxmXyXD9etV-37" style="edgeStyle=orthogonalEdgeStyle;rounded=0;orthogonalLoop=1;jettySize=auto;html=1;exitX=0.5;exitY=1;exitDx=0;exitDy=0;exitPerimeter=0;entryX=0.5;entryY=0;entryDx=0;entryDy=0;entryPerimeter=0;" edge="1" parent="1" source="l7NYolR5TWxmXyXD9etV-5" target="l7NYolR5TWxmXyXD9etV-36">
          <mxGeometry relative="1" as="geometry" />
        </mxCell>
        <mxCell id="l7NYolR5TWxmXyXD9etV-65" value="" style="edgeStyle=orthogonalEdgeStyle;rounded=0;orthogonalLoop=1;jettySize=auto;html=1;" edge="1" parent="1" source="l7NYolR5TWxmXyXD9etV-5" target="l7NYolR5TWxmXyXD9etV-64">
          <mxGeometry relative="1" as="geometry" />
        </mxCell>
        <mxCell id="l7NYolR5TWxmXyXD9etV-5" value="¿Hay conexion?" style="strokeWidth=2;html=1;shape=mxgraph.flowchart.decision;whiteSpace=wrap;" vertex="1" parent="1">
          <mxGeometry x="374" y="250" width="79" height="75" as="geometry" />
        </mxCell>
        <mxCell id="l7NYolR5TWxmXyXD9etV-35" value="" style="edgeStyle=orthogonalEdgeStyle;rounded=0;orthogonalLoop=1;jettySize=auto;html=1;" edge="1" parent="1" source="l7NYolR5TWxmXyXD9etV-6" target="l7NYolR5TWxmXyXD9etV-9">
          <mxGeometry relative="1" as="geometry" />
        </mxCell>
        <mxCell id="l7NYolR5TWxmXyXD9etV-6" value="&lt;br&gt;Conectar con los drones" style="html=1;strokeWidth=2;shape=manualInput;whiteSpace=wrap;rounded=1;size=26;arcSize=11;" vertex="1" parent="1">
          <mxGeometry x="364" y="380" width="100" height="60" as="geometry" />
        </mxCell>
        <mxCell id="l7NYolR5TWxmXyXD9etV-32" value="" style="edgeStyle=orthogonalEdgeStyle;rounded=0;orthogonalLoop=1;jettySize=auto;html=1;" edge="1" parent="1" source="l7NYolR5TWxmXyXD9etV-9" target="l7NYolR5TWxmXyXD9etV-31">
          <mxGeometry relative="1" as="geometry" />
        </mxCell>
        <mxCell id="l7NYolR5TWxmXyXD9etV-66" value="" style="edgeStyle=orthogonalEdgeStyle;rounded=0;orthogonalLoop=1;jettySize=auto;html=1;" edge="1" parent="1" source="l7NYolR5TWxmXyXD9etV-9" target="l7NYolR5TWxmXyXD9etV-63">
          <mxGeometry relative="1" as="geometry" />
        </mxCell>
        <mxCell id="l7NYolR5TWxmXyXD9etV-9" value="¿Hay conexion?" style="strokeWidth=2;html=1;shape=mxgraph.flowchart.decision;whiteSpace=wrap;" vertex="1" parent="1">
          <mxGeometry x="374" y="470" width="79" height="75" as="geometry" />
        </mxCell>
        <mxCell id="l7NYolR5TWxmXyXD9etV-23" style="edgeStyle=orthogonalEdgeStyle;rounded=0;orthogonalLoop=1;jettySize=auto;html=1;exitX=0.5;exitY=1;exitDx=0;exitDy=0;exitPerimeter=0;entryX=0.525;entryY=-0.067;entryDx=0;entryDy=0;entryPerimeter=0;" edge="1" parent="1" source="l7NYolR5TWxmXyXD9etV-11" target="l7NYolR5TWxmXyXD9etV-22">
          <mxGeometry relative="1" as="geometry" />
        </mxCell>
        <mxCell id="l7NYolR5TWxmXyXD9etV-48" value="" style="edgeStyle=orthogonalEdgeStyle;rounded=0;orthogonalLoop=1;jettySize=auto;html=1;" edge="1" parent="1" source="l7NYolR5TWxmXyXD9etV-11" target="l7NYolR5TWxmXyXD9etV-47">
          <mxGeometry relative="1" as="geometry" />
        </mxCell>
        <mxCell id="l7NYolR5TWxmXyXD9etV-11" value="¿Intrucciones recibidas?" style="strokeWidth=2;html=1;shape=mxgraph.flowchart.decision;whiteSpace=wrap;" vertex="1" parent="1">
          <mxGeometry x="374" y="1010" width="79" height="75" as="geometry" />
        </mxCell>
        <mxCell id="l7NYolR5TWxmXyXD9etV-29" style="edgeStyle=orthogonalEdgeStyle;rounded=0;orthogonalLoop=1;jettySize=auto;html=1;exitX=0.5;exitY=1;exitDx=0;exitDy=0;exitPerimeter=0;entryX=0.425;entryY=0.033;entryDx=0;entryDy=0;entryPerimeter=0;" edge="1" parent="1" source="l7NYolR5TWxmXyXD9etV-14" target="l7NYolR5TWxmXyXD9etV-26">
          <mxGeometry relative="1" as="geometry" />
        </mxCell>
        <mxCell id="l7NYolR5TWxmXyXD9etV-67" value="" style="edgeStyle=orthogonalEdgeStyle;rounded=0;orthogonalLoop=1;jettySize=auto;html=1;" edge="1" parent="1" source="l7NYolR5TWxmXyXD9etV-14" target="l7NYolR5TWxmXyXD9etV-62">
          <mxGeometry relative="1" as="geometry" />
        </mxCell>
        <mxCell id="l7NYolR5TWxmXyXD9etV-14" value="¿los drones estan en buen estado?" style="strokeWidth=2;html=1;shape=mxgraph.flowchart.decision;whiteSpace=wrap;" vertex="1" parent="1">
          <mxGeometry x="374" y="745" width="79" height="75" as="geometry" />
        </mxCell>
        <mxCell id="l7NYolR5TWxmXyXD9etV-20" style="edgeStyle=orthogonalEdgeStyle;rounded=0;orthogonalLoop=1;jettySize=auto;html=1;exitX=0.5;exitY=1;exitDx=0;exitDy=0;entryX=0.5;entryY=0;entryDx=0;entryDy=0;entryPerimeter=0;" edge="1" parent="1" source="l7NYolR5TWxmXyXD9etV-15" target="l7NYolR5TWxmXyXD9etV-19">
          <mxGeometry relative="1" as="geometry" />
        </mxCell>
        <mxCell id="l7NYolR5TWxmXyXD9etV-15" value="Esperar datos de los drones" style="shape=parallelogram;html=1;strokeWidth=2;perimeter=parallelogramPerimeter;whiteSpace=wrap;rounded=1;arcSize=12;size=0.15000000000000002;" vertex="1" parent="1">
          <mxGeometry x="359" y="1305" width="110" height="70" as="geometry" />
        </mxCell>
        <mxCell id="l7NYolR5TWxmXyXD9etV-21" value="" style="edgeStyle=orthogonalEdgeStyle;rounded=0;orthogonalLoop=1;jettySize=auto;html=1;" edge="1" parent="1" source="l7NYolR5TWxmXyXD9etV-16" target="l7NYolR5TWxmXyXD9etV-15">
          <mxGeometry relative="1" as="geometry" />
        </mxCell>
        <mxCell id="l7NYolR5TWxmXyXD9etV-16" value="Enviar los datos a los drones" style="rounded=1;whiteSpace=wrap;html=1;absoluteArcSize=1;arcSize=14;strokeWidth=2;" vertex="1" parent="1">
          <mxGeometry x="364" y="1170" width="100" height="100" as="geometry" />
        </mxCell>
        <mxCell id="l7NYolR5TWxmXyXD9etV-25" style="edgeStyle=orthogonalEdgeStyle;rounded=0;orthogonalLoop=1;jettySize=auto;html=1;exitX=0.5;exitY=1;exitDx=0;exitDy=0;entryX=0.5;entryY=0;entryDx=0;entryDy=0;entryPerimeter=0;" edge="1" parent="1" source="l7NYolR5TWxmXyXD9etV-17" target="l7NYolR5TWxmXyXD9etV-11">
          <mxGeometry relative="1" as="geometry" />
        </mxCell>
        <mxCell id="l7NYolR5TWxmXyXD9etV-17" value="Esperar intrucciones del servidor" style="rounded=1;whiteSpace=wrap;html=1;absoluteArcSize=1;arcSize=14;strokeWidth=2;" vertex="1" parent="1">
          <mxGeometry x="364" y="890" width="100" height="100" as="geometry" />
        </mxCell>
        <mxCell id="l7NYolR5TWxmXyXD9etV-30" value="" style="edgeStyle=orthogonalEdgeStyle;rounded=0;orthogonalLoop=1;jettySize=auto;html=1;" edge="1" parent="1" source="l7NYolR5TWxmXyXD9etV-18" target="l7NYolR5TWxmXyXD9etV-14">
          <mxGeometry relative="1" as="geometry" />
        </mxCell>
        <mxCell id="l7NYolR5TWxmXyXD9etV-18" value="Revisar estado de los drones" style="rounded=1;whiteSpace=wrap;html=1;absoluteArcSize=1;arcSize=14;strokeWidth=2;" vertex="1" parent="1">
          <mxGeometry x="364" y="620" width="100" height="100" as="geometry" />
        </mxCell>
        <mxCell id="l7NYolR5TWxmXyXD9etV-41" value="" style="edgeStyle=orthogonalEdgeStyle;rounded=0;orthogonalLoop=1;jettySize=auto;html=1;" edge="1" parent="1" source="l7NYolR5TWxmXyXD9etV-19" target="l7NYolR5TWxmXyXD9etV-34">
          <mxGeometry relative="1" as="geometry" />
        </mxCell>
        <mxCell id="l7NYolR5TWxmXyXD9etV-45" value="" style="edgeStyle=orthogonalEdgeStyle;rounded=0;orthogonalLoop=1;jettySize=auto;html=1;" edge="1" parent="1" source="l7NYolR5TWxmXyXD9etV-19" target="l7NYolR5TWxmXyXD9etV-44">
          <mxGeometry relative="1" as="geometry" />
        </mxCell>
        <mxCell id="l7NYolR5TWxmXyXD9etV-19" value="Datos recibidos" style="strokeWidth=2;html=1;shape=mxgraph.flowchart.decision;whiteSpace=wrap;" vertex="1" parent="1">
          <mxGeometry x="374" y="1400" width="79" height="75" as="geometry" />
        </mxCell>
        <mxCell id="l7NYolR5TWxmXyXD9etV-24" value="" style="edgeStyle=orthogonalEdgeStyle;rounded=0;orthogonalLoop=1;jettySize=auto;html=1;" edge="1" parent="1" source="l7NYolR5TWxmXyXD9etV-22" target="l7NYolR5TWxmXyXD9etV-16">
          <mxGeometry relative="1" as="geometry" />
        </mxCell>
        <mxCell id="l7NYolR5TWxmXyXD9etV-22" value="Si" style="text;html=1;align=center;verticalAlign=middle;resizable=0;points=[];autosize=1;strokeColor=none;fillColor=none;" vertex="1" parent="1">
          <mxGeometry x="399" y="1110" width="30" height="30" as="geometry" />
        </mxCell>
        <mxCell id="l7NYolR5TWxmXyXD9etV-28" value="" style="edgeStyle=orthogonalEdgeStyle;rounded=0;orthogonalLoop=1;jettySize=auto;html=1;" edge="1" parent="1" source="l7NYolR5TWxmXyXD9etV-26" target="l7NYolR5TWxmXyXD9etV-17">
          <mxGeometry relative="1" as="geometry" />
        </mxCell>
        <mxCell id="l7NYolR5TWxmXyXD9etV-26" value="Si" style="text;html=1;align=center;verticalAlign=middle;resizable=0;points=[];autosize=1;strokeColor=none;fillColor=none;" vertex="1" parent="1">
          <mxGeometry x="399" y="840" width="30" height="30" as="geometry" />
        </mxCell>
        <mxCell id="l7NYolR5TWxmXyXD9etV-33" value="" style="edgeStyle=orthogonalEdgeStyle;rounded=0;orthogonalLoop=1;jettySize=auto;html=1;" edge="1" parent="1" source="l7NYolR5TWxmXyXD9etV-31" target="l7NYolR5TWxmXyXD9etV-18">
          <mxGeometry relative="1" as="geometry" />
        </mxCell>
        <mxCell id="l7NYolR5TWxmXyXD9etV-31" value="SI" style="text;html=1;align=center;verticalAlign=middle;resizable=0;points=[];autosize=1;strokeColor=none;fillColor=none;" vertex="1" parent="1">
          <mxGeometry x="399" y="570" width="30" height="30" as="geometry" />
        </mxCell>
        <mxCell id="l7NYolR5TWxmXyXD9etV-56" value="" style="edgeStyle=orthogonalEdgeStyle;rounded=0;orthogonalLoop=1;jettySize=auto;html=1;" edge="1" parent="1" source="l7NYolR5TWxmXyXD9etV-34" target="l7NYolR5TWxmXyXD9etV-55">
          <mxGeometry relative="1" as="geometry" />
        </mxCell>
        <mxCell id="l7NYolR5TWxmXyXD9etV-34" value="Si" style="text;html=1;align=center;verticalAlign=middle;resizable=0;points=[];autosize=1;strokeColor=none;fillColor=none;" vertex="1" parent="1">
          <mxGeometry x="399" y="1500" width="30" height="30" as="geometry" />
        </mxCell>
        <mxCell id="l7NYolR5TWxmXyXD9etV-39" value="" style="edgeStyle=orthogonalEdgeStyle;rounded=0;orthogonalLoop=1;jettySize=auto;html=1;entryX=0.5;entryY=0.2;entryDx=0;entryDy=0;entryPerimeter=0;" edge="1" parent="1" source="l7NYolR5TWxmXyXD9etV-36" target="l7NYolR5TWxmXyXD9etV-6">
          <mxGeometry relative="1" as="geometry" />
        </mxCell>
        <mxCell id="l7NYolR5TWxmXyXD9etV-36" value="Si" style="text;html=1;align=center;verticalAlign=middle;resizable=0;points=[];autosize=1;strokeColor=none;fillColor=none;" vertex="1" parent="1">
          <mxGeometry x="399" y="340" width="30" height="30" as="geometry" />
        </mxCell>
        <mxCell id="l7NYolR5TWxmXyXD9etV-51" value="" style="edgeStyle=orthogonalEdgeStyle;rounded=0;orthogonalLoop=1;jettySize=auto;html=1;entryX=1;entryY=0.5;entryDx=0;entryDy=0;" edge="1" parent="1" source="l7NYolR5TWxmXyXD9etV-42" target="l7NYolR5TWxmXyXD9etV-17">
          <mxGeometry relative="1" as="geometry">
            <Array as="points">
              <mxPoint x="620" y="940" />
            </Array>
          </mxGeometry>
        </mxCell>
        <mxCell id="l7NYolR5TWxmXyXD9etV-42" value="Seguir esperando intrucciones" style="strokeWidth=2;html=1;shape=mxgraph.flowchart.loop_limit;whiteSpace=wrap;" vertex="1" parent="1">
          <mxGeometry x="570" y="1017.5" width="100" height="60" as="geometry" />
        </mxCell>
        <mxCell id="l7NYolR5TWxmXyXD9etV-53" value="" style="edgeStyle=orthogonalEdgeStyle;rounded=0;orthogonalLoop=1;jettySize=auto;html=1;entryX=1;entryY=0.5;entryDx=0;entryDy=0;" edge="1" parent="1" source="l7NYolR5TWxmXyXD9etV-43" target="l7NYolR5TWxmXyXD9etV-15">
          <mxGeometry relative="1" as="geometry">
            <mxPoint x="620" y="1327.5" as="targetPoint" />
            <Array as="points">
              <mxPoint x="620" y="1340" />
            </Array>
          </mxGeometry>
        </mxCell>
        <mxCell id="l7NYolR5TWxmXyXD9etV-43" value="Seguir esperando datos" style="strokeWidth=2;html=1;shape=mxgraph.flowchart.loop_limit;whiteSpace=wrap;" vertex="1" parent="1">
          <mxGeometry x="570" y="1407.5" width="100" height="60" as="geometry" />
        </mxCell>
        <mxCell id="l7NYolR5TWxmXyXD9etV-46" value="" style="edgeStyle=orthogonalEdgeStyle;rounded=0;orthogonalLoop=1;jettySize=auto;html=1;" edge="1" parent="1" source="l7NYolR5TWxmXyXD9etV-44" target="l7NYolR5TWxmXyXD9etV-43">
          <mxGeometry relative="1" as="geometry" />
        </mxCell>
        <mxCell id="l7NYolR5TWxmXyXD9etV-44" value="No" style="text;html=1;align=center;verticalAlign=middle;resizable=0;points=[];autosize=1;strokeColor=none;fillColor=none;" vertex="1" parent="1">
          <mxGeometry x="490" y="1422.5" width="40" height="30" as="geometry" />
        </mxCell>
        <mxCell id="l7NYolR5TWxmXyXD9etV-49" value="" style="edgeStyle=orthogonalEdgeStyle;rounded=0;orthogonalLoop=1;jettySize=auto;html=1;" edge="1" parent="1" source="l7NYolR5TWxmXyXD9etV-47" target="l7NYolR5TWxmXyXD9etV-42">
          <mxGeometry relative="1" as="geometry" />
        </mxCell>
        <mxCell id="l7NYolR5TWxmXyXD9etV-47" value="No" style="text;html=1;align=center;verticalAlign=middle;resizable=0;points=[];autosize=1;strokeColor=none;fillColor=none;" vertex="1" parent="1">
          <mxGeometry x="490" y="1032.5" width="40" height="30" as="geometry" />
        </mxCell>
        <mxCell id="l7NYolR5TWxmXyXD9etV-58" value="" style="edgeStyle=orthogonalEdgeStyle;rounded=0;orthogonalLoop=1;jettySize=auto;html=1;" edge="1" parent="1" source="l7NYolR5TWxmXyXD9etV-55" target="l7NYolR5TWxmXyXD9etV-57">
          <mxGeometry relative="1" as="geometry" />
        </mxCell>
        <mxCell id="l7NYolR5TWxmXyXD9etV-55" value="Enviar los datos al servidor" style="rounded=1;whiteSpace=wrap;html=1;absoluteArcSize=1;arcSize=14;strokeWidth=2;" vertex="1" parent="1">
          <mxGeometry x="364" y="1550" width="100" height="100" as="geometry" />
        </mxCell>
        <mxCell id="l7NYolR5TWxmXyXD9etV-57" value="Fin" style="strokeWidth=2;html=1;shape=mxgraph.flowchart.terminator;whiteSpace=wrap;" vertex="1" parent="1">
          <mxGeometry x="364" y="1680" width="100" height="60" as="geometry" />
        </mxCell>
        <mxCell id="l7NYolR5TWxmXyXD9etV-59" value="Fin" style="strokeWidth=2;html=1;shape=mxgraph.flowchart.terminator;whiteSpace=wrap;" vertex="1" parent="1">
          <mxGeometry x="790" y="1680" width="100" height="60" as="geometry" />
        </mxCell>
        <mxCell id="l7NYolR5TWxmXyXD9etV-60" style="edgeStyle=orthogonalEdgeStyle;rounded=0;orthogonalLoop=1;jettySize=auto;html=1;exitX=0.5;exitY=1;exitDx=0;exitDy=0;exitPerimeter=0;entryX=0.5;entryY=0;entryDx=0;entryDy=0;entryPerimeter=0;" edge="1" parent="1" source="l7NYolR5TWxmXyXD9etV-61" target="l7NYolR5TWxmXyXD9etV-59">
          <mxGeometry relative="1" as="geometry" />
        </mxCell>
        <mxCell id="l7NYolR5TWxmXyXD9etV-61" value="Mostrar mensaje de error" style="strokeWidth=2;html=1;shape=mxgraph.flowchart.display;whiteSpace=wrap;" vertex="1" parent="1">
          <mxGeometry x="780" y="1527.5" width="120" height="70" as="geometry" />
        </mxCell>
        <mxCell id="l7NYolR5TWxmXyXD9etV-73" value="" style="edgeStyle=orthogonalEdgeStyle;rounded=0;orthogonalLoop=1;jettySize=auto;html=1;entryX=0.5;entryY=0;entryDx=0;entryDy=0;entryPerimeter=0;" edge="1" parent="1" source="l7NYolR5TWxmXyXD9etV-62" target="l7NYolR5TWxmXyXD9etV-61">
          <mxGeometry relative="1" as="geometry">
            <mxPoint x="570" y="782.4999999999998" as="targetPoint" />
          </mxGeometry>
        </mxCell>
        <mxCell id="l7NYolR5TWxmXyXD9etV-62" value="No" style="text;html=1;align=center;verticalAlign=middle;resizable=0;points=[];autosize=1;strokeColor=none;fillColor=none;" vertex="1" parent="1">
          <mxGeometry x="490" y="767.5" width="40" height="30" as="geometry" />
        </mxCell>
        <mxCell id="l7NYolR5TWxmXyXD9etV-71" value="" style="edgeStyle=orthogonalEdgeStyle;rounded=0;orthogonalLoop=1;jettySize=auto;html=1;entryX=0.5;entryY=0;entryDx=0;entryDy=0;entryPerimeter=0;" edge="1" parent="1" source="l7NYolR5TWxmXyXD9etV-63" target="l7NYolR5TWxmXyXD9etV-61">
          <mxGeometry relative="1" as="geometry">
            <mxPoint x="570" y="507.4999999999998" as="targetPoint" />
          </mxGeometry>
        </mxCell>
        <mxCell id="l7NYolR5TWxmXyXD9etV-63" value="No" style="text;html=1;align=center;verticalAlign=middle;resizable=0;points=[];autosize=1;strokeColor=none;fillColor=none;" vertex="1" parent="1">
          <mxGeometry x="490" y="492.5" width="40" height="30" as="geometry" />
        </mxCell>
        <mxCell id="l7NYolR5TWxmXyXD9etV-69" value="" style="edgeStyle=orthogonalEdgeStyle;rounded=0;orthogonalLoop=1;jettySize=auto;html=1;entryX=0.5;entryY=0;entryDx=0;entryDy=0;entryPerimeter=0;" edge="1" parent="1" source="l7NYolR5TWxmXyXD9etV-64" target="l7NYolR5TWxmXyXD9etV-61">
          <mxGeometry relative="1" as="geometry">
            <mxPoint x="570" y="287.4999999999998" as="targetPoint" />
          </mxGeometry>
        </mxCell>
        <mxCell id="l7NYolR5TWxmXyXD9etV-64" value="No" style="text;html=1;align=center;verticalAlign=middle;resizable=0;points=[];autosize=1;strokeColor=none;fillColor=none;" vertex="1" parent="1">
          <mxGeometry x="490" y="272.5" width="40" height="30" as="geometry" />
        </mxCell>
      </root>
    </mxGraphModel>
  </diagram>
</mxfile>
